<?xml version="1.0" standalone="no"?>
<!DOCTYPE svg PUBLIC "-//W3C//DTD SVG 20010904//EN"
 "http://www.w3.org/TR/2001/REC-SVG-20010904/DTD/svg10.dtd">
<svg version="1.0" xmlns="http://www.w3.org/2000/svg"
 width="512.000000pt" height="512.000000pt" viewBox="0 0 512.000000 512.000000"
 preserveAspectRatio="xMidYMid meet">

<g transform="translate(0.000000,512.000000) scale(0.100000,-0.100000)"
fill="white" stroke="none">
<path d="M2535 3966 c-1045 -369 -1921 -680 -1948 -690 -61 -23 -98 -71 -105
-135 -5 -55 21 -118 61 -143 27 -19 1503 -708 1514 -708 4 0 179 171 388 379
333 333 385 380 418 386 79 15 178 -54 193 -133 14 -75 6 -86 -391 -482 -206
-206 -375 -379 -375 -383 0 -11 689 -1486 708 -1515 22 -33 84 -62 134 -62 57
0 109 36 136 92 11 24 325 905 696 1959 465 1317 676 1928 676 1956 0 80 -78
154 -159 152 -34 -1 -553 -180 -1946 -673z"/>
</g>
</svg>
